<?xml version="1.0" standalone="no"?>
<!DOCTYPE svg PUBLIC "-//W3C//DTD SVG 20010904//EN"
 "http://www.w3.org/TR/2001/REC-SVG-20010904/DTD/svg10.dtd">
<svg version="1.0" xmlns="http://www.w3.org/2000/svg"
 width="70.000000pt" height="70.000000pt" viewBox="0 0 70.000000 70.000000"
 preserveAspectRatio="xMidYMid meet">
<metadata>
Created by potrace 1.10, written by Peter Selinger 2001-2011
</metadata>
<g transform="translate(0.000000,70.000000) scale(0.050000,-0.050000)"
fill="#f5f5f5" stroke="#FF0000">
<path d="M947 1127 c-109 -24 -162 -207 -59 -207 37 0 112 94 112 141 0 84
171 62 279 -37 161 -147 19 -381 -242 -400 -132 -10 -285 35 -306 90 -13 35
41 219 71 237 10 6 18 21 18 33 0 37 -65 -31 -93 -99 -24 -57 -37 -65 -104
-65 -50 0 -89 -13 -112 -38 -19 -22 -81 -49 -138 -62 -165 -37 -168 -39 -273
-122 -117 -92 -135 -171 -52 -225 44 -29 50 -28 83 8 74 82 179 -16 118 -110
-36 -55 -32 -164 6 -156 14 3 25 -5 25 -16 0 -32 78 -2 160 61 56 44 390 200
426 200 5 0 15 -22 22 -50 14 -53 98 -121 129 -102 36 23 37 117 1 211 -42
113 -38 121 72 121 283 0 412 345 202 539 -53 49 -228 74 -345 48z m-247 -377
c0 -66 60 -123 158 -149 85 -23 92 -35 113 -186 18 -123 -30 -132 -77 -14
l-32 81 -100 -51 c-55 -28 -113 -51 -128 -51 -15 0 -44 -18 -64 -39 -19 -22
-54 -46 -78 -53 -23 -8 -63 -30 -90 -51 -64 -50 -122 -48 -122 4 0 22 13 45
29 51 39 15 6 83 -73 146 -58 46 -61 47 -128 15 -87 -41 -88 -41 -88 6 0 60
126 149 285 200 80 25 155 50 168 55 13 5 34 -24 47 -64 30 -90 83 -87 102 5
10 48 6 65 -15 65 -16 0 -27 -22 -28 -55 0 -59 -21 -37 -48 50 -11 36 -4 49
33 64 89 36 136 26 136 -29z"/>
<path d="M1076 865 c-135 -18 -109 -119 36 -138 85 -11 165 30 140 70 -24 39
-119 75 -176 68z"/>
</g>
</svg>
