<svg width="50" height="40" viewBox="0 0 50 40" fill="none" xmlns="http://www.w3.org/2000/svg">
<path fill-rule="evenodd" clip-rule="evenodd" d="M1.90584 0C0.856122 0 0 0.8357 0 1.8729C0 2.91008 0.85612 3.7458 1.90584 3.7458H48.0942C49.144 3.7458 50 2.9101 50 1.8729C50 0.835725 49.144 0 48.0942 0H1.90584ZM1.90584 18.1271C0.856122 18.1271 0 18.9628 0 20C0 21.0373 0.85612 21.873 1.90584 21.873H48.0942C49.144 21.873 50 21.0373 50 20C50 18.9628 49.144 18.1271 48.0942 18.1271H1.90584ZM1.90584 36.2542C0.856122 36.2542 0 37.09 0 38.127C0 39.1642 0.85612 40 1.90584 40H48.0942C49.144 40 50 39.1642 50 38.127C50 37.09 49.144 36.2542 48.0942 36.2542H1.90584Z" fill="#F9F9F9"/>
</svg>
